<svg xmlns="http://www.w3.org/2000/svg" width="617.9052734375" height="683.6953125" viewBox="-335.19207763671875 -345.02850341796875 617.9052734375 683.6953125"><title>Neo4j Graph Visualization</title><desc>Created using Neo4j (http://www.neo4j.com/)</desc><g class="layer relationships"><g class="relationship" transform="translate(42.20803539097414 195.12023771826202) rotate(413.88777058386256)"><path class="outline" fill="#A5ABB6" stroke="none" d="M 25 0.5 L 53.0587913089782 0.5 L 53.0587913089782 -0.5 L 25 -0.5 Z M 81.7306663089782 0.5 L 109.7894576179564 0.5 L 109.7894576179564 3.5 L 116.7894576179564 0 L 109.7894576179564 -3.5 L 109.7894576179564 -0.5 L 81.7306663089782 -0.5 Z"/><text text-anchor="middle" pointer-events="none" font-size="8px" fill="#000000" x="67.3947288089782" y="3" font-family="sans-serif">DOES</text></g><g class="relationship" transform="translate(42.20803539097414 195.12023771826202) rotate(330.7274933758737)"><path class="outline" fill="#A5ABB6" stroke="none" d="M 25 0.5 L 56.81969737325262 0.5 L 56.81969737325262 -0.5 L 25 -0.5 Z M 85.49157237325262 0.5 L 117.31126974650525 0.5 L 117.31126974650525 3.5 L 124.31126974650525 0 L 117.31126974650525 -3.5 L 117.31126974650525 -0.5 L 85.49157237325262 -0.5 Z"/><text text-anchor="middle" pointer-events="none" font-size="8px" fill="#000000" x="71.15563487325262" y="3" font-family="sans-serif">DOES</text></g><g class="relationship" transform="translate(253.71323331840122 -1.6299656522277537) rotate(483.2925049945573)"><path class="outline" fill="#A5ABB6" stroke="none" d="M 25 0.5 L 56.18335956094758 0.5 L 56.18335956094758 -0.5 L 25 -0.5 Z M 84.85523456094758 0.5 L 116.03859412189516 0.5 L 116.03859412189516 3.5 L 123.03859412189516 0 L 116.03859412189516 -3.5 L 116.03859412189516 -0.5 L 84.85523456094758 -0.5 Z"/><text text-anchor="middle" pointer-events="none" font-size="8px" fill="#000000" x="70.51929706094758" y="3" transform="rotate(180 70.51929706094758 0)" font-family="sans-serif">DOES</text></g><g class="relationship" transform="translate(253.71323331840122 -1.6299656522277537) rotate(222.82120844953886)"><path class="outline" fill="#A5ABB6" stroke="none" d="M 25 0.5 L 56.10361971097771 0.5 L 56.10361971097771 -0.5 L 25 -0.5 Z M 84.77549471097771 0.5 L 115.87911442195542 0.5 L 115.87911442195542 3.5 L 122.87911442195542 0 L 115.87911442195542 -3.5 L 115.87911442195542 -0.5 L 84.77549471097771 -0.5 Z"/><text text-anchor="middle" pointer-events="none" font-size="8px" fill="#000000" x="70.43955721097771" y="3" transform="rotate(180 70.43955721097771 0)" font-family="sans-serif">DOES</text></g><g class="relationship" transform="translate(161.6510142113125 -247.7735195457538) rotate(208.23074104234752)"><path class="outline" fill="#A5ABB6" stroke="none" d="M 25 0.5 L 54.31160718257057 0.5 L 54.31160718257057 -0.5 L 25 -0.5 Z M 82.98348218257057 0.5 L 112.29508936514114 0.5 L 112.29508936514114 3.5 L 119.29508936514114 0 L 112.29508936514114 -3.5 L 112.29508936514114 -0.5 L 82.98348218257057 -0.5 Z"/><text text-anchor="middle" pointer-events="none" font-size="8px" fill="#000000" x="68.64754468257057" y="3" transform="rotate(180 68.64754468257057 0)" font-family="sans-serif">DOES</text></g><g class="relationship" transform="translate(161.6510142113125 -247.7735195457538) rotate(456.4268405679612)"><path class="outline" fill="#A5ABB6" stroke="none" d="M 25 0.5 L 55.43865953244665 0.5 L 55.43865953244665 -0.5 L 25 -0.5 Z M 84.11053453244665 0.5 L 114.5491940648933 0.5 L 114.5491940648933 3.5 L 121.5491940648933 0 L 114.5491940648933 -3.5 L 114.5491940648933 -0.5 L 84.11053453244665 -0.5 Z"/><text text-anchor="middle" pointer-events="none" font-size="8px" fill="#000000" x="69.77459703244665" y="3" transform="rotate(180 69.77459703244665 0)" font-family="sans-serif">DOES</text></g><g class="relationship" transform="translate(-4.44497699469662 -97.4271670663925) rotate(204.83927086167944)"><path class="outline" fill="#A5ABB6" stroke="none" d="M 25 0.5 L 54.73394428371327 0.5 L 54.73394428371327 -0.5 L 25 -0.5 Z M 83.40581928371327 0.5 L 113.13976356742654 0.5 L 113.13976356742654 3.5 L 120.13976356742654 0 L 113.13976356742654 -3.5 L 113.13976356742654 -0.5 L 83.40581928371327 -0.5 Z"/><text text-anchor="middle" pointer-events="none" font-size="8px" fill="#000000" x="69.06988178371327" y="3" transform="rotate(180 69.06988178371327 0)" font-family="sans-serif">DOES</text></g><g class="relationship" transform="translate(-4.44497699469662 -97.4271670663925) rotate(358.19469639516524)"><path class="outline" fill="#A5ABB6" stroke="none" d="M 25 0.5 L 57.04727427989795 0.5 L 57.04727427989795 -0.5 L 25 -0.5 Z M 85.71914927989795 0.5 L 117.7664235597959 0.5 L 117.7664235597959 3.5 L 124.7664235597959 0 L 117.7664235597959 -3.5 L 117.7664235597959 -0.5 L 85.71914927989795 -0.5 Z"/><text text-anchor="middle" pointer-events="none" font-size="8px" fill="#000000" x="71.38321177989795" y="3" font-family="sans-serif">DOES</text></g><g class="relationship" transform="translate(-306.19206465880035 35.13933035746056) rotate(369.32901400891126)"><path class="outline" fill="#A5ABB6" stroke="none" d="M 25 0.5 L 53.59277337867904 0.5 L 53.59277337867904 -0.5 L 25 -0.5 Z M 82.26464837867904 0.5 L 110.85742175735808 0.5 L 110.85742175735808 3.5 L 117.85742175735808 0 L 110.85742175735808 -3.5 L 110.85742175735808 -0.5 L 82.26464837867904 -0.5 Z"/><text text-anchor="middle" pointer-events="none" font-size="8px" fill="#000000" x="67.92871087867904" y="3" font-family="sans-serif">DOES</text></g><g class="relationship" transform="translate(-306.19206465880035 35.13933035746056) rotate(433.1609556347671)"><path class="outline" fill="#A5ABB6" stroke="none" d="M 25 0.5 L 54.41335292011192 0.5 L 54.41335292011192 -0.5 L 25 -0.5 Z M 83.08522792011192 0.5 L 112.49858084022384 0.5 L 112.49858084022384 3.5 L 119.49858084022384 0 L 112.49858084022384 -3.5 L 112.49858084022384 -0.5 L 83.08522792011192 -0.5 Z"/><text text-anchor="middle" pointer-events="none" font-size="8px" fill="#000000" x="68.74929042011192" y="3" font-family="sans-serif">DOES</text></g></g><g class="layer nodes"><g class="node" aria-label="graph-node31" transform="translate(42.20803539097414,195.12023771826202)"><circle class="outline" cx="0" cy="0" r="25" fill="#F79767" stroke="#f36924" stroke-width="2px"/><text class="caption" text-anchor="middle" pointer-events="none" x="0" y="5" font-size="10px" fill="#FFFFFF" font-family="sans-serif"> Lucy</text></g><g class="node" aria-label="graph-node37" transform="translate(125.77431847286054,309.66685103996736)"><circle class="outline" cx="0" cy="0" r="25" fill="#FFC454" stroke="#d7a013" stroke-width="2px"/><text class="caption" text-anchor="middle" pointer-events="none" x="0" y="0" font-size="10px" fill="#2A2C34" font-family="sans-serif"> Rock</text><text class="caption" text-anchor="middle" pointer-events="none" x="0" y="10" font-size="10px" fill="#2A2C34" font-family="sans-serif"> Climbi…</text></g><g class="node" aria-label="graph-node36" transform="translate(172.4528535583643,122.11241201541607)"><circle class="outline" cx="0" cy="0" r="25" fill="#FFC454" stroke="#d7a013" stroke-width="2px"/><text class="caption" text-anchor="middle" pointer-events="none" x="0" y="5" font-size="10px" fill="#2A2C34" font-family="sans-serif"> Hiking</text></g><g class="node" aria-label="graph-node32" transform="translate(253.71323331840122,-1.6299656522277537)"><circle class="outline" cx="0" cy="0" r="25" fill="#F79767" stroke="#f36924" stroke-width="2px"/><text class="caption" text-anchor="middle" pointer-events="none" x="0" y="5" font-size="10px" fill="#FFFFFF" font-family="sans-serif"> Himayat</text></g><g class="node" aria-label="graph-node38" transform="translate(145.24710978139458,-102.1453004379041)"><circle class="outline" cx="0" cy="0" r="25" fill="#FFC454" stroke="#d7a013" stroke-width="2px"/><text class="caption" text-anchor="middle" pointer-events="none" x="0" y="5" font-size="10px" fill="#2A2C34" font-family="sans-serif"> Basketball</text></g><g class="node" aria-label="graph-node33" transform="translate(161.6510142113125,-247.7735195457538)"><circle class="outline" cx="0" cy="0" r="25" fill="#F79767" stroke="#f36924" stroke-width="2px"/><text class="caption" text-anchor="middle" pointer-events="none" x="0" y="5" font-size="10px" fill="#FFFFFF" font-family="sans-serif"> John</text></g><g class="node" aria-label="graph-node39" transform="translate(34.519856543263586,-316.0284941987104)"><circle class="outline" cx="0" cy="0" r="25" fill="#FFC454" stroke="#d7a013" stroke-width="2px"/><text class="caption" text-anchor="middle" pointer-events="none" x="0" y="5" font-size="10px" fill="#2A2C34" font-family="sans-serif"> Photogr…</text></g><g class="node" aria-label="graph-node34" transform="translate(-4.44497699469662,-97.4271670663925)"><circle class="outline" cx="0" cy="0" r="25" fill="#F79767" stroke="#f36924" stroke-width="2px"/><text class="caption" text-anchor="middle" pointer-events="none" x="0" y="5" font-size="10px" fill="#FFFFFF" font-family="sans-serif"> Jay</text></g><g class="node" aria-label="graph-node40" transform="translate(-136.15782771355296,-158.39663421119164)"><circle class="outline" cx="0" cy="0" r="25" fill="#FFC454" stroke="#d7a013" stroke-width="2px"/><text class="caption" text-anchor="middle" pointer-events="none" x="0" y="5" font-size="10px" fill="#2A2C34" font-family="sans-serif"> Racing</text></g><g class="node" aria-label="graph-node35" transform="translate(-306.19206465880035,35.13933035746056)"><circle class="outline" cx="0" cy="0" r="25" fill="#F79767" stroke="#f36924" stroke-width="2px"/><text class="caption" text-anchor="middle" pointer-events="none" x="0" y="5" font-size="10px" fill="#FFFFFF" font-family="sans-serif"> Franky</text></g><g class="node" aria-label="graph-node42" transform="translate(-165.22411011543014,58.29702331289114)"><circle class="outline" cx="0" cy="0" r="25" fill="#FFC454" stroke="#d7a013" stroke-width="2px"/><text class="caption" text-anchor="middle" pointer-events="none" x="0" y="5" font-size="10px" fill="#2A2C34" font-family="sans-serif"> Tennis</text></g><g class="node" aria-label="graph-node41" transform="translate(-264.33312363951046,173.44214638657223)"><circle class="outline" cx="0" cy="0" r="25" fill="#FFC454" stroke="#d7a013" stroke-width="2px"/><text class="caption" text-anchor="middle" pointer-events="none" x="0" y="0" font-size="10px" fill="#2A2C34" font-family="sans-serif"> flag</text><text class="caption" text-anchor="middle" pointer-events="none" x="0" y="10" font-size="10px" fill="#2A2C34" font-family="sans-serif"> football</text></g></g></svg>